<svg xmlns="http://www.w3.org/2000/svg" width="800" height="800" viewBox="0 0 800 800"><defs><linearGradient id="bgdark800800" x1="0" y1="0" x2="1" y2="1"><stop offset="0" stop-color="#1c1c1e"/><stop offset="1" stop-color="#0a0a0a"/></linearGradient><radialGradient id="gldark800800" cx="0.5" cy="0.5" r="0.5"><stop offset="0" stop-color="#ffc800" stop-opacity="0.35"/><stop offset="1" stop-color="#ffc800" stop-opacity="0"/></radialGradient><pattern id="dtdark800800" width="22" height="22" patternUnits="userSpaceOnUse"><circle cx="1" cy="1" r="1" fill="#ffffff" fill-opacity="0.1"/></pattern></defs><rect width="800" height="800" fill="url(#bgdark800800)"/><rect width="800" height="800" fill="url(#dtdark800800)"/><circle cx="400" cy="376" r="352.8" fill="url(#gldark800800)"/><circle cx="400" cy="376" r="275.52" fill="none" stroke="#ffc800" stroke-opacity="0.12" stroke-width="1.5"/><g transform="translate(232 208) scale(14)" fill="none" stroke="#ffc800" stroke-width="1.25" stroke-linecap="round" stroke-linejoin="round"><path d="M12 3q1 4 4 6.5t3 5.5a1 1 0 0 1-14 0 5 5 0 0 1 1-3 1 1 0 0 0 5 0c0-2-1.5-3-1.5-5q0-2 2.5-4" /></g><text x="400" y="728" text-anchor="middle" font-family="Poppins, Arial, sans-serif" font-size="22" font-weight="600" letter-spacing="4.8" fill="#ffffff" fill-opacity="0.55">CARSAPPO</text></svg>