<svg xmlns="http://www.w3.org/2000/svg" width="800" height="800" viewBox="0 0 800 800"><defs><linearGradient id="bglight800800" x1="0" y1="0" x2="1" y2="1"><stop offset="0" stop-color="#f8f8f9"/><stop offset="1" stop-color="#e9e9ed"/></linearGradient><radialGradient id="gllight800800" cx="0.5" cy="0.5" r="0.5"><stop offset="0" stop-color="#ffc800" stop-opacity="0.35"/><stop offset="1" stop-color="#ffc800" stop-opacity="0"/></radialGradient><pattern id="dtlight800800" width="22" height="22" patternUnits="userSpaceOnUse"><circle cx="1" cy="1" r="1" fill="#0a0a0a" fill-opacity="0.06"/></pattern></defs><rect width="800" height="800" fill="url(#bglight800800)"/><rect width="800" height="800" fill="url(#dtlight800800)"/><circle cx="400" cy="376" r="352.8" fill="url(#gllight800800)"/><circle cx="400" cy="376" r="275.52" fill="none" stroke="#0a0a0a" stroke-opacity="0.12" stroke-width="1.5"/><g transform="translate(232 208) scale(14)" fill="none" stroke="#0a0a0a" stroke-width="1.25" stroke-linecap="round" stroke-linejoin="round"><path d="M11.562 3.266a.5.5 0 0 1 .876 0L15.39 8.87a1 1 0 0 0 1.516.294L21.183 5.5a.5.5 0 0 1 .798.519l-2.834 10.246a1 1 0 0 1-.956.734H5.81a1 1 0 0 1-.957-.734L2.02 6.02a.5.5 0 0 1 .798-.519l4.276 3.664a1 1 0 0 0 1.516-.294z" />  <path d="M5 21h14" /></g><text x="400" y="728" text-anchor="middle" font-family="Poppins, Arial, sans-serif" font-size="22" font-weight="600" letter-spacing="4.8" fill="#0a0a0a" fill-opacity="0.55">CARSAPPO</text></svg>